<?xml version="1.0" standalone="no"?><!DOCTYPE svg PUBLIC "-//W3C//DTD SVG 1.1//EN" "http://www.w3.org/Graphics/SVG/1.1/DTD/svg11.dtd"><svg class="icon" width="128px" height="128.00px" viewBox="0 0 1024 1024" version="1.1" xmlns="http://www.w3.org/2000/svg"><path d="M208 976v-33.39C208 810.83 344.11 704 512 704s304 106.83 304 238.61V976z" fill="#00B9FF" /><path d="M824 984H200v-41.39c0-66.24 32.71-128.4 92.1-175C350.92 721.43 429 696 512 696s161.08 25.43 219.9 71.59c59.39 46.62 92.1 108.78 92.1 175z m-608-16h592v-25.39C808 815.45 675.21 712 512 712S216 815.45 216 942.61z" fill="#222222" /><path d="M560 624h-96v90s0 54 48 54 48-54 48-54z" fill="#FFCEBF" /><path d="M512 776c-29.09 0-42.87-17.27-49.31-31.75A82.54 82.54 0 0 1 456 714v-98h112v98a82.54 82.54 0 0 1-6.69 30.25C554.87 758.73 541.09 776 512 776z m-40-144v82c0 1.86 0.69 46 40 46 16.69 0 28-7.28 34.69-22.25A67.2 67.2 0 0 0 552 714v-82z" fill="#222222" /><path d="M284.71 411.81m-58.14 0a58.14 58.14 0 1 0 116.28 0 58.14 58.14 0 1 0-116.28 0Z" fill="#FFCEBF" /><path d="M284.71 478a66.15 66.15 0 1 1 66.15-66.14A66.21 66.21 0 0 1 284.71 478z m0-116.29a50.15 50.15 0 1 0 50.15 50.15 50.21 50.21 0 0 0-50.15-50.2z" fill="#222222" /><path d="M739.29 411.81m-58.14 0a58.14 58.14 0 1 0 116.28 0 58.14 58.14 0 1 0-116.28 0Z" fill="#FFCEBF" /><path d="M739.29 478a66.15 66.15 0 1 1 66.14-66.14A66.22 66.22 0 0 1 739.29 478z m0-116.29a50.15 50.15 0 1 0 50.14 50.15 50.21 50.21 0 0 0-50.14-50.2z" fill="#222222" /><path d="M743.73 312.57l0.84 111.69C744.57 561.08 640.45 672 512 672S279.43 561.08 279.43 424.26l0.84-111.69S320 96 512 96s231.73 216.57 231.73 216.57z" fill="#FFCEBF" /><path d="M512 680c-64.35 0-124.83-26.67-170.29-75.09s-70.28-112.43-70.28-180.65l0.85-112.45 0.12-0.68c0.42-2.27 10.61-56.28 45-111.09 20.31-32.41 44.88-58.28 73-76.88C425.69 99.83 466.61 88 512 88s86.31 11.83 121.62 35.16c28.14 18.6 52.71 44.47 73 76.88 34.35 54.81 44.54 108.82 45 111.09l0.12 0.68 0.85 112.39c0 68.28-25 132.43-70.28 180.71S576.35 680 512 680zM288.27 313.38l-0.84 110.94C287.43 556.45 388.17 664 512 664s224.57-107.55 224.57-239.74l-0.84-110.88c-1.25-6.21-12-56.13-42.9-105.26C649.37 139 588.53 104 512 104s-137.37 35-180.83 104.12c-30.9 49.13-41.65 99.05-42.9 105.26z" fill="#222222" /><path d="M300.57 469.95a37 21.14 0 1 0 74 0 37 21.14 0 1 0-74 0Z" fill="#FFA096" /><path d="M649.43 469.95a37 21.14 0 1 0 74 0 37 21.14 0 1 0-74 0Z" fill="#FFA096" /><path d="M681.14 378.57h-16.58a31.7 31.7 0 0 0-51.4 0h-16.59a8 8 0 0 0 0 16h10.69c-0.07 0.85-0.12 1.71-0.12 2.57a31.72 31.72 0 1 0 63.43 0c0-0.86 0-1.72-0.11-2.57h10.68a8 8 0 0 0 0-16zM427.43 378.57h-16.59a31.7 31.7 0 0 0-51.4 0h-16.58a8 8 0 0 0 0 16h10.68c-0.07 0.85-0.11 1.71-0.11 2.57a31.72 31.72 0 1 0 63.43 0c0-0.86-0.05-1.72-0.12-2.57h10.69a8 8 0 0 0 0-16z" fill="#222222" /><path d="M427.43 576.86s28.19 10.57 84.57 10.57 84.57-10.57 84.57-10.57" fill="#FFCEBF" /><path d="M512 595.43c-57.17 0-86.17-10.63-87.38-11.08a8 8 0 0 1 5.6-15c0.27 0.1 27.87 10.07 81.78 10.07 54.3 0 81.49-10 81.76-10.06a8 8 0 0 1 5.62 15c-1.21 0.44-30.21 11.07-87.38 11.07z" fill="#222222" /><path d="M448 816l-48-96 48-16 64 64-64 48z" fill="#00B9FF" /><path d="M448 824a8.24 8.24 0 0 1-1.84-0.21 8 8 0 0 1-5.32-4.21l-48-96a8 8 0 0 1 4.63-11.17l48-16a8 8 0 0 1 8.19 1.93l64 64a8 8 0 0 1-0.86 12.06l-64 48a8 8 0 0 1-4.8 1.6z m-36.72-99.33l39.59 79.18 48.95-36.72-54-54z" fill="#222222" /><path d="M576 816l48-96-48-16-64 64 64 48z" fill="#00B9FF" /><path d="M576 824a8 8 0 0 1-4.8-1.6l-64-48a8 8 0 0 1-0.86-12.06l64-64a8 8 0 0 1 8.19-1.93l48 16a8 8 0 0 1 4.63 11.17l-48 96a8 8 0 0 1-5.32 4.21 8.24 8.24 0 0 1-1.84 0.21z m-51.82-56.87l49 36.72 39.59-79.18-34.56-11.52z" fill="#222222" /><path d="M720 976H304V752l64-32v192h288V720l64 32v224z" fill="#FFA041" /><path d="M720 984H304a8 8 0 0 1-8-8V752a8 8 0 0 1 4.42-7.16l64-32A8 8 0 0 1 376 720v184h272V720a8 8 0 0 1 11.58-7.16l64 32A8 8 0 0 1 728 752v224a8 8 0 0 1-8 8z m-408-16h400V756.94l-48-24V912a8 8 0 0 1-8 8H368a8 8 0 0 1-8-8V732.94l-48 24z" fill="#222222" /><path d="M753.55 307.44c0-65.12-484.3-65.12-484.3 0 0-133.73 108.42-242.14 242.15-242.14s242.15 108.41 242.15 242.14z" fill="#FFC841" /><path d="M761.55 307.44h-16c0-7.55-18.09-19.61-69.08-28.75-43.47-7.8-102.09-12.09-165.07-12.09s-121.6 4.29-165.06 12.09c-51 9.14-69.09 21.2-69.09 28.75h-16a250.15 250.15 0 0 1 500.3 0zM511.4 73.3c-120.92 0-220.73 92.13-232.9 209.89 13.54-8.19 35.13-14.9 65-20.25 44.37-8 104-12.34 167.89-12.34s123.53 4.4 167.9 12.34c29.88 5.35 51.47 12.06 65 20.25C732.13 165.43 632.32 73.3 511.4 73.3z" fill="#222222" /><path d="M442.22 256V117.19C442.22 79 462.8 48 511.4 48s69.19 31 69.19 69.19V256c0 29.37-138.37 29.37-138.37 0z" fill="#FFB441" /><path d="M511.4 286c-12.89 0-77.18-1.45-77.18-30V117.18c0-22.05 6.36-40.82 18.41-54.26C466.07 47.93 486.39 40 511.4 40s45.33 7.93 58.78 22.92c12 13.44 18.41 32.21 18.41 54.26V256c0 28.58-64.3 30-77.19 30z m0-230c-55.22 0-61.18 42.79-61.18 61.18V256c0 1.13 2.9 5.17 15.79 8.83 11.69 3.3 28.23 5.2 45.39 5.2s33.7-1.9 45.39-5.2c12.89-3.66 15.8-7.7 15.8-8.83V117.18c0-18.39-5.97-61.18-61.19-61.18zM355.73 264a8 8 0 0 1-8-8V128a8 8 0 0 1 16 0v128a8 8 0 0 1-8 8zM665.84 264a8 8 0 0 1-8-8V128a8 8 0 0 1 16 0v128a8 8 0 0 1-8 8z" fill="#222222" /><path d="M273.84 352c46.36-23.26 135.63-39 238.16-39s191.8 15.75 238.16 39c21.55-10.82 33.84-23.26 33.84-36.49 0-41.7-121.78-75.51-272-75.51s-272 33.81-272 75.51c0 13.23 12.29 25.67 33.84 36.49z" fill="#FFC841" /><path d="M750.16 361l-3.59-1.8C699.66 335.61 609.78 321 512 321s-187.66 14.62-234.57 38.16l-3.59 1.8-3.58-1.8C244.87 346.41 232 331.73 232 315.51 232 261.27 376.26 232 512 232s280 29.27 280 83.51c0 16.22-12.87 30.9-38.26 43.64zM512 305c97.65 0 188.17 14.53 238 38.06 16.78-9 26-18.73 26-27.54 0-15.78-27.59-32.86-73.81-45.69C651.5 255.75 584 248 512 248s-139.5 7.75-190.19 21.82C275.59 282.65 248 299.73 248 315.51c0 8.81 9.18 18.51 26 27.54C323.83 319.52 414.35 305 512 305z" fill="#222222" /><path d="M912 560v48l-24.91 40h-46.18L816 608v-48a80 80 0 0 0 16 137.33V928h64V697.33A80 80 0 0 0 912 560z" fill="#646464" /><path d="M896 936h-64a8 8 0 0 1-8-8V702.39a88 88 0 0 1-12.81-148.79A8 8 0 0 1 824 560v45.71L845.35 640h37.3L904 605.71V560a8 8 0 0 1 12.81-6.4A88 88 0 0 1 904 702.39V928a8 8 0 0 1-8 8z m-56-16h48V697.33a8 8 0 0 1 4.8-7.33A72.07 72.07 0 0 0 920 578.69V608a8 8 0 0 1-1.21 4.23l-24.9 40a8 8 0 0 1-6.8 3.77h-46.18a8 8 0 0 1-6.79-3.77l-24.91-40A8 8 0 0 1 808 608v-29.31A72.07 72.07 0 0 0 835.2 690a8 8 0 0 1 4.8 7.33z m72-312z" fill="#222222" /><path d="M800 784h160v48H800z" fill="#FFCEBF" /><path d="M968 840H792v-64h176z m-160-16h144v-32H808z" fill="#222222" /><path d="M800 832h160v48H800z" fill="#FFCEBF" /><path d="M968 888H792v-64h176z m-160-16h144v-32H808z" fill="#222222" /><path d="M800 880h160v48H800z" fill="#FFCEBF" /><path d="M968 936H792v-64h176z m-160-16h144v-32H808z" fill="#222222" /><path d="M800 928h160v48H800z" fill="#FFCEBF" /><path d="M968 984H792v-64h176z m-160-16h144v-32H808z" fill="#222222" /><path d="M864 784h96v192h-96" fill="#FFCEBF" /><path d="M968 984H864v-16h88V792h-88v-16h104v208z" fill="#222222" /><path d="M800 784v96h-48v-96z" fill="#FFCEBF" /><path d="M808 888h-64V776h64z m-48-16h32v-80h-32zM512 920a8 8 0 0 1-8-8V784a8 8 0 0 1 16 0v128a8 8 0 0 1-8 8z" fill="#222222" /></svg>