<?xml version="1.0" standalone="no"?><!DOCTYPE svg PUBLIC "-//W3C//DTD SVG 1.1//EN" "http://www.w3.org/Graphics/SVG/1.1/DTD/svg11.dtd"><svg class="icon" width="128px" height="128.00px" viewBox="0 0 1024 1024" version="1.1" xmlns="http://www.w3.org/2000/svg"><path d="M336 960H208v-33.39C208 794.83 344.11 688 512 688s304 106.83 304 238.61V960H336z" fill="#FFFFFF" /><path d="M824 968H200v-41.39c0-66.24 32.71-128.4 92.1-175C350.92 705.43 429 680 512 680s161.08 25.43 219.9 71.59c59.39 46.62 92.1 108.78 92.1 175z m-608-16h592v-25.39C808 799.45 675.21 696 512 696S216 799.45 216 926.61z" fill="#222222" /><path d="M560 608h-96v90s0 86 48 86 48-86 48-86z" fill="#FFCEBF" /><path d="M512 792c-16.46 0-38.44-8.47-49.71-48.85A188.19 188.19 0 0 1 456 698v-98h112v98a188.19 188.19 0 0 1-6.29 45.15C550.44 783.53 528.46 792 512 792z m-40-176v82c0 0.78 0.55 78 40 78 15.88 0 27.42-12.5 34.29-37.15A173.86 173.86 0 0 0 552 698v-82z" fill="#222222" /><path d="M432 832l-16-144 48-16 48 112-80 48z" fill="#FFFFFF" /><path d="M432 840a8 8 0 0 1-7.95-7.12l-16-144a8 8 0 0 1 5.42-8.47l48-16a8 8 0 0 1 9.88 4.44l48 112a8 8 0 0 1-3.23 10l-80 48A8 8 0 0 1 432 840z m-7.33-146.46l13.9 125.19 63.33-38-42.35-98.81z" fill="#222222" /><path d="M592 832l16-144-48-16-48 112 80 48z" fill="#FFFFFF" /><path d="M592 840a8 8 0 0 1-4.12-1.14l-80-48a8 8 0 0 1-3.23-10l48-112a8 8 0 0 1 9.88-4.44l48 16a8 8 0 0 1 5.42 8.47l-16 144a8 8 0 0 1-8 7.12z m-69.9-59.27l63.33 38 13.9-125.19-34.88-11.62z" fill="#222222" /><path d="M464 960l16-96-16-48 48-32 48 32-16 48 16 96h-96z" fill="#00B9FF" /><path d="M569.44 968H454.56l17.22-103.36-17.3-51.91L512 774.38l57.52 38.35-17.3 51.91z m-96-16h77.12l-14.78-88.64 14.7-44.09L512 793.62l-38.48 25.65 14.7 44.09z" fill="#222222" /><path d="M480 856h64v16h-64z" fill="#222222" /><path d="M284.71 411.81m-58.14 0a58.14 58.14 0 1 0 116.28 0 58.14 58.14 0 1 0-116.28 0Z" fill="#FFCEBF" /><path d="M284.71 478a66.15 66.15 0 1 1 66.15-66.14A66.21 66.21 0 0 1 284.71 478z m0-116.29a50.15 50.15 0 1 0 50.15 50.15 50.21 50.21 0 0 0-50.15-50.2z" fill="#222222" /><path d="M739.29 411.81m-58.14 0a58.14 58.14 0 1 0 116.28 0 58.14 58.14 0 1 0-116.28 0Z" fill="#FFCEBF" /><path d="M739.29 478a66.15 66.15 0 1 1 66.14-66.14A66.22 66.22 0 0 1 739.29 478z m0-116.29a50.15 50.15 0 1 0 50.14 50.15 50.21 50.21 0 0 0-50.14-50.2z" fill="#222222" /><path d="M743.73 312.57l0.84 111.69C744.57 561.08 640.45 672 512 672S279.43 561.08 279.43 424.26l0.84-111.69S320 96 512 96s231.73 216.57 231.73 216.57z" fill="#FFCEBF" /><path d="M512 680c-64.35 0-124.83-26.67-170.29-75.09s-70.28-112.43-70.28-180.65l0.85-112.45 0.12-0.68c0.42-2.27 10.61-56.28 45-111.09 20.31-32.41 44.88-58.28 73-76.88C425.69 99.83 466.61 88 512 88s86.31 11.83 121.62 35.16c28.14 18.6 52.71 44.47 73 76.88 34.35 54.81 44.54 108.82 45 111.09l0.12 0.68 0.85 112.39c0 68.28-25 132.43-70.28 180.71S576.35 680 512 680zM288.27 313.38l-0.84 110.94C287.43 556.45 388.17 664 512 664s224.57-107.55 224.57-239.74l-0.84-110.88c-1.25-6.21-12-56.13-42.9-105.26C649.37 139 588.53 104 512 104s-137.37 35-180.83 104.12c-30.9 49.13-41.65 99.05-42.9 105.26z" fill="#222222" /><path d="M300.57 469.95a37 21.14 0 1 0 74 0 37 21.14 0 1 0-74 0Z" fill="#FFA096" /><path d="M649.43 469.95a37 21.14 0 1 0 74 0 37 21.14 0 1 0-74 0Z" fill="#FFA096" /><path d="M681.14 378.57h-16.58a31.7 31.7 0 0 0-51.4 0h-16.59a8 8 0 0 0 0 16h10.69c-0.07 0.85-0.12 1.71-0.12 2.57a31.72 31.72 0 1 0 63.43 0c0-0.86 0-1.72-0.11-2.57h10.68a8 8 0 0 0 0-16zM427.43 378.57h-16.59a31.7 31.7 0 0 0-51.4 0h-16.58a8 8 0 0 0 0 16h10.68c-0.07 0.85-0.11 1.71-0.11 2.57a31.72 31.72 0 1 0 63.43 0c0-0.86-0.05-1.72-0.12-2.57h10.69a8 8 0 0 0 0-16z" fill="#222222" /><path d="M427.43 576.86s28.19 10.57 84.57 10.57 84.57-10.57 84.57-10.57" fill="#FFCEBF" /><path d="M512 595.43c-57.17 0-86.17-10.63-87.38-11.08a8 8 0 0 1 5.6-15c0.27 0.1 27.87 10.07 81.78 10.07 54.3 0 81.49-10 81.76-10.06a8 8 0 0 1 5.62 15c-1.21 0.44-30.21 11.07-87.38 11.07z" fill="#222222" /><path d="M512 58.67c-54.81 0-96.94 8.45-129.3 23.36-39.24 15.72-84 30-116 0.65 0 18.65 0 50.65 38.49 74-23.59 47.18-27.83 106.87-27.83 168.68l64-85.33s170.64 74.64 277.31-42.7c42.66 42.67 96 42.67 96 42.67l32 85.33c0-138.66-21.34-266.66-234.67-266.66z" fill="#644B46" /><path d="M746.66 333.33a8 8 0 0 1-7.48-5.19L709 247.72a156.86 156.86 0 0 1-90-39.07 202.56 202.56 0 0 1-86.3 52.5c-28.38 8.69-59.75 11.89-93.25 9.5A345.7 345.7 0 0 1 344 249.72l-60.31 80.41a8 8 0 0 1-14.4-4.8c0-54.42 3.13-116.26 25.6-165.79-36.27-25.28-36.26-58.55-36.26-76.86a8 8 0 0 1 13.4-5.9c28.65 26.26 70.48 12.71 107.47-2.11 35.15-16.15 78.48-24 132.46-24 100.21 0 167 27.79 204 85 34 52.32 38.63 122.09 38.63 189.68a8 8 0 0 1-6.58 7.88 8.63 8.63 0 0 1-1.35 0.1zM275.28 98.72c1.75 16.38 8.44 35.59 34 51.09a8 8 0 0 1 3 10.42C292 200.89 286.7 252.53 285.59 301l49.34-65.79a8 8 0 0 1 9.61-2.53c0.41 0.18 42.43 18.28 96.51 22.05 71.53 5 129.29-16.13 171.7-62.77a8 8 0 0 1 11.57-0.27c39.87 39.85 89.85 40.31 90.35 40.31a8 8 0 0 1 7.49 5.19l15.43 41.16c-2.6-49.29-10.9-96.89-35-134C668.71 92.08 606.36 66.67 512 66.67c-51 0-93.37 7.61-125.95 22.62l-0.37 0.16c-20.1 8.06-41.64 15.79-63 17.76-18.31 1.7-33.97-1.09-47.4-8.49zM382.7 82z" fill="#222222" /><path d="M944 800v160h-48V800z" fill="#FFCEBF" /><path d="M952 968h-64V792h64z m-48-16h32V808h-32z" fill="#222222" /><path d="M896 800v160h-48V800z" fill="#FFCEBF" /><path d="M904 968h-64V792h64z m-48-16h32V808h-32z" fill="#222222" /><path d="M848 800v160h-48V800z" fill="#FFCEBF" /><path d="M856 968h-64V792h64z m-48-16h32V808h-32z" fill="#222222" /><path d="M800 800v160h-48V800z" fill="#FFCEBF" /><path d="M808 968h-64V792h64z m-48-16h32V808h-32z" fill="#222222" /><path d="M944 864v96H752v-96" fill="#FFCEBF" /><path d="M952 968H744V864h16v88h176v-88h16v104z" fill="#222222" /><path d="M784 736h92v32h-92z" fill="#FFBE00" /><path d="M884 776H776v-48h108z m-92-16h76v-16h-76z" fill="#222222" /><path d="M838.163 650.784l22.628-22.627 65.054 65.054-22.628 22.627z" fill="#FFBE00" /><path d="M903.21 727.15l-76.36-76.36 33.94-33.94 76.36 76.36z m-53.74-76.36l53.74 53.74 11.32-11.32-53.74-53.74z" fill="#222222" /><path d="M783.996 609.058l65.054-65.054 22.628 22.627-65.054 65.054z" fill="#FFBE00" /><path d="M806.63 643l-33.94-34 76.36-76.36 34 33.94z m-11.32-34l11.32 11.32 53.74-53.74-11.32-11.32z" fill="#222222" /></svg>